<?xml version="1.0" encoding="utf-8"?>
<!-- Generator: Adobe Illustrator 18.0.0, SVG Export Plug-In . SVG Version: 6.00 Build 0)  -->
<!DOCTYPE svg PUBLIC "-//W3C//DTD SVG 1.1//EN" "http://www.w3.org/Graphics/SVG/1.1/DTD/svg11.dtd">
<svg version="1.1" xmlns="http://www.w3.org/2000/svg" xmlns:xlink="http://www.w3.org/1999/xlink" x="0px" y="0px"
	 viewBox="0 0 256 256" enable-background="new 0 0 256 256" xml:space="preserve">
<g id="Layer_3">
	<rect fill="#65DBCC" width="256" height="256"/>
</g>
<g id="Layer_4">
</g>
<g id="screen">
	<g>
		<g>
			<path fill="#FFFFFF" d="M135.4,100.1h-14.8c-1.7,0-3.1,1.4-3.1,3.1v29.7c0,1.7,1.4,3.1,3.1,3.1h14.8c1.7,0,3.1-1.4,3.1-3.1v-29.7
				C138.5,101.5,137.1,100.1,135.4,100.1z M125.9,101.7h4.1c0.2,0,0.4,0.2,0.4,0.4c0,0.2-0.2,0.4-0.4,0.4h-4.1
				c-0.2,0-0.4-0.2-0.4-0.4C125.6,101.9,125.7,101.7,125.9,101.7z M128,134.5c-0.9,0-1.6-0.7-1.6-1.6c0-0.9,0.7-1.6,1.6-1.6
				c0.9,0,1.6,0.7,1.6,1.6C129.6,133.8,128.9,134.5,128,134.5z M136.3,130.1h-16.7v-25.9h16.7V130.1z"/>
			<circle opacity="0.2" fill="#FFFFFF" cx="128" cy="132.9" r="1.6"/>
			<polygon opacity="0.2" fill="#FFFFFF" points="136.3,104.2 119.7,104.2 119.7,130.1 			"/>
		</g>
		<g>
			<path fill="#FFFFFF" d="M197,68.6H59c-5.5,0-9.9,4.5-9.9,10.1v75.6c0,5.6,4.4,10.1,9.9,10.1h51.6v15.2H91.2c-2,0-3.7,1.7-3.7,3.8
				v4h81v-4c0-2.1-1.7-3.8-3.7-3.8h-19.4v-15.2H197c5.5,0,9.9-4.5,9.9-10.1V78.7C206.9,73.2,202.5,68.6,197,68.6z M197,146.8
				c0,4.9-3.9,8.9-8.8,8.9H67.7c-4.8,0-8.7-4-8.7-8.9V86.3c0-4.9,3.9-8.9,8.7-8.9h120.6c4.8,0,8.8,4,8.8,8.9V146.8z"/>
			<path opacity="0.2" fill="#FFFFFF" d="M59,146.8c0-5.7,0-60.5,0-60.5c0-4.9,3.9-8.9,8.7-8.9h120.6c4.8,0,8.8,4,8.8,8.9
				C197,86.3,105.1,99.8,59,146.8z"/>
		</g>
	</g>
</g>
</svg>
